<svg xmlns="http://www.w3.org/2000/svg" width="245.991" height="71.17" viewBox="0 0 245.991 71.17">
  <g id="logo-coprel-padrao" transform="translate(0.504 0.507)">
    <path id="Path_740" data-name="Path 740" d="M2113.882-180.007a5.506,5.506,0,0,1,5.142-5.848,5.506,5.506,0,0,1,5.847,5.142,5.506,5.506,0,0,1-5.142,5.848c-.12.008-.24.012-.359.012A5.5,5.5,0,0,1,2113.882-180.007Zm-6.619,1.035a2.822,2.822,0,0,1-1.8-3.563,2.823,2.823,0,0,1,3.563-1.8,2.824,2.824,0,0,1,1.8,3.563,2.824,2.824,0,0,1-2.682,1.944A2.818,2.818,0,0,1,2107.264-178.972Zm20.472-3.152a2.822,2.822,0,0,1,1.331-3.764,2.822,2.822,0,0,1,3.764,1.331,2.822,2.822,0,0,1-1.33,3.764,2.814,2.814,0,0,1-1.215.276A2.823,2.823,0,0,1,2127.736-182.124Zm-33.077-.7a5.506,5.506,0,0,1-.674-7.758,5.507,5.507,0,0,1,7.758-.674,5.506,5.506,0,0,1,.674,7.757,5.5,5.5,0,0,1-4.219,1.965A5.483,5.483,0,0,1,2094.659-182.821Zm40.91-3.294a5.5,5.5,0,0,1-.324-7.78,5.5,5.5,0,0,1,7.78-.324,5.5,5.5,0,0,1,.324,7.78,5.49,5.49,0,0,1-4.053,1.778A5.484,5.484,0,0,1,2135.57-186.115Zm-23.584-2.251a3.362,3.362,0,0,1-2.525-4.027,3.362,3.362,0,0,1,4.028-2.525,3.362,3.362,0,0,1,2.525,4.027,3.362,3.362,0,0,1-3.273,2.611A3.374,3.374,0,0,1,2111.986-188.366Zm5.943-2.687a1.724,1.724,0,0,1,1.435-1.971,1.723,1.723,0,0,1,1.97,1.435,1.722,1.722,0,0,1-1.434,1.97,1.735,1.735,0,0,1-.271.021A1.724,1.724,0,0,1,2117.929-191.053Zm5.333-.816a3.361,3.361,0,0,1,1.167-4.608,3.361,3.361,0,0,1,4.608,1.165,3.361,3.361,0,0,1-1.166,4.608,3.345,3.345,0,0,1-1.718.475A3.36,3.36,0,0,1,2123.262-191.869Zm-17.788-1.219a1.724,1.724,0,0,1-.433-2.4,1.723,1.723,0,0,1,2.4-.434,1.723,1.723,0,0,1,.433,2.4,1.722,1.722,0,0,1-1.418.741A1.715,1.715,0,0,1,2105.474-193.089Zm-16.989-1.315a2.824,2.824,0,0,1,1.16-3.82,2.824,2.824,0,0,1,3.821,1.16,2.824,2.824,0,0,1-1.16,3.821,2.812,2.812,0,0,1-1.328.334A2.821,2.821,0,0,1,2088.485-194.4Zm10.4-3.247a3.361,3.361,0,0,1,.958-4.656,3.361,3.361,0,0,1,4.656.957,3.361,3.361,0,0,1-.957,4.656,3.345,3.345,0,0,1-1.847.555A3.359,3.359,0,0,1,2098.888-197.651Zm31.421.9a1.724,1.724,0,0,1-.325-2.416,1.724,1.724,0,0,1,2.416-.325,1.724,1.724,0,0,1,.325,2.416,1.721,1.721,0,0,1-1.372.678A1.715,1.715,0,0,1,2130.309-196.753Zm-48.276-9.142a5.507,5.507,0,0,1,4.874-6.074,5.506,5.506,0,0,1,6.073,4.874,5.5,5.5,0,0,1-4.873,6.073,5.575,5.575,0,0,1-.608.033A5.507,5.507,0,0,1,2082.033-205.895Zm15.413.329a1.724,1.724,0,0,1,1.344-2.033,1.723,1.723,0,0,1,2.032,1.345,1.723,1.723,0,0,1-1.344,2.033,1.732,1.732,0,0,1-.346.035A1.725,1.725,0,0,1,2097.446-205.565Zm1.1-3.939a3.36,3.36,0,0,1-2.7-3.909,3.361,3.361,0,0,1,3.909-2.7,3.362,3.362,0,0,1,2.7,3.909,3.362,3.362,0,0,1-3.3,2.76A3.386,3.386,0,0,1,2098.541-209.5Zm-11.006-5.55a2.823,2.823,0,0,1-1.96-3.479,2.823,2.823,0,0,1,3.479-1.96,2.823,2.823,0,0,1,1.96,3.478,2.826,2.826,0,0,1-2.718,2.066A2.823,2.823,0,0,1,2087.535-215.055Zm41.221-3.362a3.361,3.361,0,0,1,.534-4.723,3.361,3.361,0,0,1,4.723.535,3.361,3.361,0,0,1-.534,4.723,3.346,3.346,0,0,1-2.092.732A3.355,3.355,0,0,1,2128.756-218.417Zm-27.952.662a1.723,1.723,0,0,1-.541-2.376,1.723,1.723,0,0,1,2.377-.541,1.723,1.723,0,0,1,.541,2.376,1.724,1.724,0,0,1-1.461.806A1.715,1.715,0,0,1,2100.8-217.755Zm2.974-4.468a3.36,3.36,0,0,1,.746-4.693,3.36,3.36,0,0,1,4.694.746,3.361,3.361,0,0,1-.747,4.694,3.344,3.344,0,0,1-1.971.641A3.355,3.355,0,0,1,2103.777-222.223Zm-13.9-1.356a5.507,5.507,0,0,1-1.022-7.72,5.507,5.507,0,0,1,7.719-1.023,5.508,5.508,0,0,1,1.023,7.72,5.5,5.5,0,0,1-4.376,2.158A5.484,5.484,0,0,1,2089.874-223.579Zm35.466.02a1.724,1.724,0,0,1-.647-2.35,1.722,1.722,0,0,1,2.35-.647,1.723,1.723,0,0,1,.647,2.349,1.722,1.722,0,0,1-1.5.873A1.717,1.717,0,0,1,2125.34-223.559Zm14.149-1.648a2.824,2.824,0,0,1,.811-3.91,2.824,2.824,0,0,1,3.909.811,2.823,2.823,0,0,1-.811,3.91,2.813,2.813,0,0,1-1.548.464A2.819,2.819,0,0,1,2139.489-225.207Zm-20.262,1.192a3.361,3.361,0,0,1-2.877-3.783,3.362,3.362,0,0,1,3.784-2.878,3.362,3.362,0,0,1,2.877,3.784,3.361,3.361,0,0,1-3.326,2.908A3.391,3.391,0,0,1,2119.227-224.015Zm-8.114-2.608a1.723,1.723,0,0,1,1.251-2.092,1.723,1.723,0,0,1,2.092,1.251,1.722,1.722,0,0,1-1.251,2.092,1.725,1.725,0,0,1-.422.052A1.724,1.724,0,0,1,2111.113-226.623Zm19.61-3.627a5.506,5.506,0,0,1-1.371-7.665,5.507,5.507,0,0,1,7.666-1.37,5.506,5.506,0,0,1,1.37,7.665,5.5,5.5,0,0,1-4.523,2.359A5.477,5.477,0,0,1,2130.723-230.25Zm-31.566-3.869a2.824,2.824,0,0,1,.986-3.869,2.823,2.823,0,0,1,3.869.986,2.824,2.824,0,0,1-.987,3.869,2.811,2.811,0,0,1-1.438.4A2.822,2.822,0,0,1,2099.157-234.119Zm7.582-4.545a5.5,5.5,0,0,1,4.594-6.287,5.506,5.506,0,0,1,6.287,4.594,5.507,5.507,0,0,1-4.594,6.287,5.55,5.55,0,0,1-.853.066A5.507,5.507,0,0,1,2106.739-238.664Zm16.108,2.182a2.822,2.822,0,0,1-2.115-3.386,2.824,2.824,0,0,1,3.387-2.116,2.824,2.824,0,0,1,2.115,3.387,2.824,2.824,0,0,1-2.748,2.188A2.827,2.827,0,0,1,2122.847-236.482Z" transform="translate(-2082 245.017)" fill="#c5e505" stroke="rgba(0,0,0,0)" stroke-width="1"/>
    <path id="Path_739" data-name="Path 739" d="M2149.662-188.681v-42.4h6.543v4.361q3.694-5.148,10.6-5.149a14.2,14.2,0,0,1,10.661,4.634,15.759,15.759,0,0,1,4.423,11.3,15.728,15.728,0,0,1-4.423,11.327,14.247,14.247,0,0,1-10.661,4.6q-6.905,0-10.6-5.089v16.417Zm9.268-34.2a9.463,9.463,0,0,0-2.725,6.936,9.458,9.458,0,0,0,2.725,6.935,9.232,9.232,0,0,0,6.846,2.757,9.229,9.229,0,0,0,6.844-2.757,9.459,9.459,0,0,0,2.726-6.935,9.464,9.464,0,0,0-2.726-6.936,9.232,9.232,0,0,0-6.844-2.756A9.235,9.235,0,0,0,2158.93-222.877Zm48.641,18.355a15.421,15.421,0,0,1-4.543-11.418,15.584,15.584,0,0,1,4.483-11.358,15.42,15.42,0,0,1,11.509-4.574,14.165,14.165,0,0,1,10.934,4.665,16.173,16.173,0,0,1,4.271,11.327,20.3,20.3,0,0,1-.242,2.726h-24.109a8.317,8.317,0,0,0,3.332,5.3,10.7,10.7,0,0,0,6.36,1.848q5.21,0,7.815-3.756l5.391,3.15q-4.483,6.6-13.266,6.6Q2212.113-200.01,2207.571-204.522Zm5.332-19.415a9.011,9.011,0,0,0-3.09,5.452h17.809a8.744,8.744,0,0,0-3.059-5.574,8.818,8.818,0,0,0-5.6-1.877A9.2,9.2,0,0,0,2212.9-223.937Zm-95.285,19.324a15.291,15.291,0,0,1-4.665-11.327,15.293,15.293,0,0,1,4.665-11.327,15.526,15.526,0,0,1,11.327-4.6,15.5,15.5,0,0,1,11.358,4.6,15.342,15.342,0,0,1,4.634,11.327,15.34,15.34,0,0,1-4.634,11.327,15.5,15.5,0,0,1-11.358,4.6A15.525,15.525,0,0,1,2117.618-204.613Zm4.6-18.173a9.284,9.284,0,0,0-2.725,6.845,9.281,9.281,0,0,0,2.725,6.845,9.139,9.139,0,0,0,6.724,2.726,9.138,9.138,0,0,0,6.724-2.726,9.277,9.277,0,0,0,2.726-6.845,9.281,9.281,0,0,0-2.726-6.845,9.137,9.137,0,0,0-6.724-2.725A9.138,9.138,0,0,0,2122.222-222.786Zm-35.648,18.173A15.442,15.442,0,0,1,2082-215.941a15.418,15.418,0,0,1,4.574-11.358,15.5,15.5,0,0,1,11.418-4.574,15.7,15.7,0,0,1,8.056,2.12,13.7,13.7,0,0,1,5.452,5.694l-5.633,3.271a7.765,7.765,0,0,0-3.119-3.423,9.259,9.259,0,0,0-4.817-1.241,9.033,9.033,0,0,0-6.693,2.726,9.26,9.26,0,0,0-2.7,6.784,9.26,9.26,0,0,0,2.7,6.784,9.036,9.036,0,0,0,6.693,2.726,9.287,9.287,0,0,0,4.817-1.272,8.319,8.319,0,0,0,3.24-3.392l5.634,3.209a14.4,14.4,0,0,1-5.573,5.755,15.693,15.693,0,0,1-8.056,2.12A15.44,15.44,0,0,1,2086.573-204.613Zm152.194,3.816v-44.22h6.542v44.22Zm-52.154,0v-30.288h6.542V-226q2.483-5.634,9.328-5.634v7.088a9.7,9.7,0,0,0-6.542,1.787q-2.788,2.03-2.786,6.693V-200.8Z" transform="translate(-2000.322 252.966)" fill="#1b1464" stroke="rgba(0,0,0,0)" stroke-width="1"/>
  </g>
</svg>
